<svg xmlns="http://www.w3.org/2000/svg" width="1200" height="320" viewBox="0 0 1200 320">
  <defs>
    <linearGradient id="bg" x1="0" x2="1" y1="0" y2="1">
      <stop offset="0" stop-color="#0ea5e9"/>
      <stop offset="1" stop-color="#2563eb"/>
    </linearGradient>
    <filter id="shadow" x="-20%" y="-20%" width="140%" height="140%">
      <feDropShadow dx="0" dy="8" stdDeviation="10" flood-color="#000" flood-opacity="0.25"/>
    </filter>
  </defs>

  <rect width="1200" height="320" fill="url(#bg)"/>

  <!-- subtle dots -->
  <g opacity="0.18">
    <circle cx="80" cy="60" r="3" fill="#fff"/>
    <circle cx="140" cy="120" r="3" fill="#fff"/>
    <circle cx="220" cy="70" r="3" fill="#fff"/>
    <circle cx="340" cy="160" r="3" fill="#fff"/>
    <circle cx="420" cy="80" r="3" fill="#fff"/>
    <circle cx="520" cy="200" r="3" fill="#fff"/>
    <circle cx="640" cy="110" r="3" fill="#fff"/>
    <circle cx="760" cy="220" r="3" fill="#fff"/>
    <circle cx="880" cy="90" r="3" fill="#fff"/>
    <circle cx="1020" cy="170" r="3" fill="#fff"/>
    <circle cx="1120" cy="70" r="3" fill="#fff"/>
  </g>

  <!-- left: gopher-ish circle -->
  <g filter="url(#shadow)">
    <circle cx="160" cy="160" r="92" fill="#7dd3fc"/>
    <circle cx="128" cy="140" r="18" fill="#fff" opacity="0.95"/>
    <circle cx="194" cy="140" r="18" fill="#fff" opacity="0.95"/>
    <circle cx="128" cy="140" r="8" fill="#0f172a"/>
    <circle cx="194" cy="140" r="8" fill="#0f172a"/>
    <path d="M135 190c20 18 50 18 70 0" fill="none" stroke="#0f172a" stroke-width="10" stroke-linecap="round"/>
  </g>

  <!-- right: telegram-ish paper plane -->
  <g transform="translate(1030 115)" filter="url(#shadow)">
    <path d="M0 50 L135 0 L110 140 L65 100 L35 130 L30 95 L0 50 Z" fill="#e0f2fe"/>
    <path d="M65 100 L110 140" stroke="#93c5fd" stroke-width="8" stroke-linecap="round"/>
  </g>

  <!-- text -->
  <g font-family="ui-sans-serif, system-ui, -apple-system, Segoe UI, Roboto, Helvetica, Arial" fill="#fff">
    <text x="300" y="140" font-size="44" font-weight="800">telegram-notify-service</text>
    <text x="300" y="190" font-size="22" opacity="0.92">Tiny HTTP service (Go) to send notifications to Telegram</text>
    <g transform="translate(300 220)" opacity="0.95">
      <rect x="0" y="0" rx="10" ry="10" width="86" height="34" fill="rgba(255,255,255,0.16)"/>
      <text x="18" y="24" font-size="16" font-weight="700">Go</text>
      <rect x="100" y="0" rx="10" ry="10" width="110" height="34" fill="rgba(255,255,255,0.16)"/>
      <text x="118" y="24" font-size="16" font-weight="700">Fast</text>
      <rect x="224" y="0" rx="10" ry="10" width="150" height="34" fill="rgba(255,255,255,0.16)"/>
      <text x="242" y="24" font-size="16" font-weight="700">Token auth</text>
    </g>
  </g>
</svg>
